Coordinates
version=1
nRows=9
nColumns=24
inDegrees=yes

Units are S.I. units (second, meters, Newtons, ...)
Angles are in degrees.

endheader
time	pelvis_tilt	pelvis_list	pelvis_rotation	pelvis_tx	pelvis_ty	pelvis_tz	hip_flexion_r	hip_adduction_r	hip_rotation_r	knee_angle_r	ankle_angle_r	subtalar_angle_r	mtp_angle_r	hip_flexion_l	hip_adduction_l	hip_rotation_l	knee_angle_l	ankle_angle_l	subtalar_angle_l	mtp_angle_l	lumbar_extension	lumbar_bending	lumbar_rotation
      0.87050000	      1.05157051	     -5.95625081	      8.07350486	     -0.52942437	      1.02550506	      0.33635990	     11.17822983	     11.41082424	     -3.08429764	    -17.23917913	      3.80435296	    -14.46118733	      5.15164903	     14.35624422	     -8.90189061	      0.04356027	    -69.76180501	     -7.66471311	     -2.90397058	      3.12623367	     -2.66174435	      3.49721560	     -2.65643608
      0.87466667	      1.05045925	     -5.84130783	      8.08750359	     -0.52459000	      1.02626191	      0.33645767	     10.73003131	     11.34249196	     -3.05412661	    -16.97963509	      3.90450674	    -14.42588719	      5.15663730	     14.95950378	     -8.76011934	      0.04022856	    -69.73516098	     -6.79405968	     -3.28160111	      3.07796366	     -2.72205952	      3.36190259	     -2.60987031
      0.87883333	      1.04621355	     -5.74897628	      8.07670786	     -0.51977750	      1.02695852	      0.33660864	     10.28932593	     11.30414340	     -2.99001483	    -16.72272280	      4.02353864	    -14.32537311	      5.29264425	     15.56261499	     -8.65424395	      0.01317764	    -69.69080719	     -5.73376656	     -3.38735323	     -0.57446496	     -2.79140439	      3.24134252	     -2.43339356
      0.88300000	      1.04252440	     -5.65060961	      8.07272838	     -0.51495680	      1.02765337	      0.33672847	      9.84078227	     11.25619243	     -2.94181806	    -16.45229600	      4.14355792	    -14.27018114	      5.29529726	     16.14850652	     -8.53174339	     -0.00653046	    -69.56905124	     -4.88716355	     -3.64648731	     -0.57211024	     -2.85855955	      3.12777748	     -2.35283983
      0.88716667	      1.04039500	     -5.54001743	      8.05216955	     -0.51013004	      1.02835887	      0.33685237	      9.38532033	     11.19676580	     -2.87848204	    -16.17706790	      4.24023204	    -14.21971214	      5.29714847	     16.70723332	     -8.39268473	     -0.04509064	    -69.37593985	     -4.12756678	     -3.97870613	     -0.56770166	     -2.91209757	      3.00126370	     -2.29595489
      0.89133333	      1.08567950	     -5.42953937	      8.00741208	     -0.50532693	      1.02910495	      0.33702171	      8.87369475	     11.15091804	     -2.76630913	    -15.89474146	      4.35972315	    -14.14252350	      5.29805497	     17.19588891	     -8.27270329	     -0.11384020	    -69.13386303	     -3.33425121	     -4.17395672	     -0.59774079	     -3.05215078	      2.87235321	     -2.11234362
      0.89550000	      1.09950264	     -5.30751880	      7.95071203	     -0.50053445	      1.02980682	      0.33717837	      8.40005501	     11.08470053	     -2.65737530	    -15.62365814	      4.45725569	    -14.08425089	      5.29727709	     17.69816884	     -8.12474168	     -0.18678468	    -68.82543846	     -2.64296427	     -4.47196974	     -0.62901902	     -3.15737878	      2.73749484	     -1.98873862
      0.89966667	      1.09776500	     -5.18767930	      7.88884242	     -0.49571346	      1.03046565	      0.33733795	      7.93729072	     11.01703813	     -2.56184161	    -15.33941951	      4.55077128	    -14.02515029	      5.29775411	     18.20024495	     -7.97803126	     -0.26758490	    -68.45930376	     -2.01087713	     -4.77566277	     -0.64027533	     -3.19637651	      2.59994148	     -1.91479390
      0.90383333	      1.17577499	     -5.04419363	      7.79564256	     -0.49092365	      1.03124472	      0.33754840	      7.37915653	     10.94276268	     -2.39167948	    -15.04977084	      4.66986050	    -13.95221852	      5.29308511	     18.58042567	     -7.82733204	     -0.38482323	    -68.02041082	     -1.40322542	     -5.01170672	     -0.70839811	     -3.39057601	      2.43561439	     -1.66437653
